<svg width="259" height="318" viewBox="0 0 259 318" fill="none" xmlns="http://www.w3.org/2000/svg">
<path d="M229.05 126.46C182.249 51.9033 175.05 -15.0399 110.55 2.9601C46.0504 20.9601 -1.77168 130.958 0.0503599 201.96C6.01809 249.482 9.49422 275.954 37.0504 295.46C93.8247 317.297 125.345 335.107 186.05 286.46C238.981 220.716 263.979 184.277 229.05 126.46Z" fill="#D9B1AD" fill-opacity="0.24"/>
<path d="M29.1708 126.46C75.9721 51.9033 83.1708 -15.0399 147.671 2.9601C212.171 20.9601 259.993 130.958 258.171 201.96C252.203 249.482 248.727 275.954 221.171 295.46C164.396 317.297 132.876 335.107 72.1708 286.46C19.2405 220.716 -5.75815 184.277 29.1708 126.46Z" fill="#D9B1AD" fill-opacity="0.24"/>
<path d="M120.757 136.072C106.414 119.81 97.2411 107.395 89.529 110.441C86.8808 111.837 85.3512 112.485 86.2664 124.583C88.5302 134.327 91.0588 140.375 91.3933 155.074C94.2652 175.48 91.6882 188.701 133.341 193.963C126.36 193.605 122.49 193.531 115.164 193.963C96.6212 198.029 90.2358 202.699 89.529 217.384C91.8368 235.775 100.242 239.437 120.757 240.805" stroke="#A95858" stroke-width="4" stroke-linecap="round"/>
<path d="M134.273 193.963C125.446 189.538 120.78 186.644 118.426 172.751C118.845 153.46 119.924 144.293 122.621 129.444C123.438 113.532 124.525 106.476 130.544 106.022C144.587 105.108 156.336 132.519 158.509 142.259C160.876 156.261 164.012 163.605 171.094 176.286C170.376 185.188 168.59 189.107 165.501 196.172M134.273 193.963L165.501 196.172M134.273 193.963C103.23 208.22 107.063 220.14 109.57 229.758C125.487 255.242 146.691 233.137 164.102 213.407L165.501 196.172" stroke="#A95858" stroke-width="4"/>
<path d="M172.026 174.519C172.825 173.049 173.553 172.409 174.823 171.425C176.908 171.626 177.385 172.157 178.085 173.193C178.79 174.915 178.767 175.779 178.085 177.17C176.539 179.519 175.304 180.052 172.958 180.705C171.784 183.457 171.252 185.085 170.628 188.218C168.822 195.529 168.923 200.838 167.365 207.662C165.807 214.486 165.409 217.339 164.569 222.687V213.407L165.501 196.172C167.903 191.02 168.975 187.998 170.628 182.473V179.38C171.026 177.117 171.32 176.064 172.026 174.519Z" fill="#A95858"/>
<path d="M186.009 148.004C181.545 151.444 179.133 153.473 176.221 158.61C173.73 163.059 174.274 166.108 174.823 171.425M174.823 171.425C173.553 172.409 172.825 173.049 172.026 174.519C171.32 176.064 171.026 177.117 170.628 179.38M174.823 171.425C176.908 171.626 177.385 172.157 178.085 173.193C178.79 174.915 178.767 175.779 178.085 177.17C176.539 179.519 175.304 180.052 172.958 180.705M174.823 171.425C177.725 168.112 179.452 166.292 183.678 163.471C186.58 161.271 188.644 160.428 193 159.494M170.628 179.38C171.084 180.699 171.622 180.942 172.958 180.705M170.628 179.38V182.473C168.975 187.998 167.903 191.02 165.501 196.172L164.569 213.407V222.687C165.409 217.338 165.807 214.486 167.365 207.662C168.923 200.838 168.822 195.529 170.628 188.218C171.252 185.085 171.784 183.457 172.958 180.705" stroke="#A95858"/>
</svg>
