<svg width="120" height="130" viewBox="0 0 120 130" fill="none" xmlns="http://www.w3.org/2000/svg">
<path d="M95.2459 106.177C101.62 109.625 106.597 114.755 106.597 123.388V125.186C106.597 126.543 105.566 127.646 104.297 127.646H15.2772C14.0081 127.646 12.9777 126.543 12.9777 125.186V123.388C12.9777 106.7 31.5626 103.111 42.9229 99.4297C44.1518 99.0328 44.9931 97.8218 44.9931 96.4465V85.1612" stroke="#A95858" stroke-width="3" stroke-miterlimit="10" stroke-linecap="round" stroke-linejoin="round"/>
<path d="M74.5814 85.1612V96.4466C74.5814 97.8218 75.4227 99.0328 76.6517 99.4297C79.8799 100.476 83.6919 101.515 87.492 102.848" stroke="#A95858" stroke-width="3" stroke-miterlimit="10" stroke-linecap="round" stroke-linejoin="round"/>
<path d="M59.7872 1.99994C76.9588 1.99994 91.3063 14.9285 94.7851 32.1826" stroke="#A95858" stroke-width="3" stroke-miterlimit="10" stroke-linecap="round" stroke-linejoin="round"/>
<path d="M32.7277 39.0465C32.3637 40.2119 32.0754 41.4128 31.8745 42.6465" stroke="#A95858" stroke-width="3" stroke-miterlimit="10" stroke-linecap="round" stroke-linejoin="round"/>
<path d="M45.6926 81.8087C50.7406 84.9638 56.0863 86.7688 59.7872 86.7688C63.4905 86.7688 68.8339 84.9638 73.8818 81.8112" stroke="#A95858" stroke-width="3" stroke-miterlimit="10" stroke-linecap="round" stroke-linejoin="round"/>
<path d="M51.8892 21.982C52.9715 21.8177 54.0776 21.7343 55.2001 21.7343H64.3744C76.0466 21.7343 85.7432 30.762 87.7 42.6465" stroke="#A95858" stroke-width="3" stroke-miterlimit="10" stroke-linecap="round" stroke-linejoin="round"/>
<path d="M32.7208 39.064C36.9903 28.103 64.6073 14.0856 80.0861 8.74907C74.3171 4.49407 67.3249 2.00038 59.7872 2.00038C53.7655 2.00038 48.0911 3.59054 43.1107 6.39973" stroke="#A95858" stroke-width="3" stroke-miterlimit="10" stroke-linecap="round" stroke-linejoin="round"/>
<path d="M33.8054 63.6169C35.5093 62.7827 36.5397 60.7956 36.1923 58.7327L34.0322 45.8319L22.6743 29.0607L19.1081 7.77685C18.9923 7.08922 18.3779 6.63163 17.7374 6.75551L2.97399 9.58695C2.31227 9.71336 1.88215 10.406 2.02867 11.1089L11.7323 57.2058C12.8076 62.3226 15.5797 66.8504 19.5311 69.9548L41.1339 86.9207C42.1076 87.6842 43.4853 87.4997 44.2274 86.4783C46.3686 83.5356 46.144 79.3567 43.7075 76.6947L34.3513 66.4737L33.8054 63.6169ZM33.8054 63.6169C33.491 63.7712 33.1531 63.8874 32.7962 63.9557C30.5086 64.3931 28.3249 62.765 27.9137 60.3203L25.7513 47.4196" stroke="#A95858" stroke-width="3" stroke-miterlimit="10" stroke-linecap="round" stroke-linejoin="round"/>
<path d="M93.8225 47.4198L91.6606 60.3201C91.2506 62.766 89.065 64.3931 86.7785 63.9547C84.4923 63.5161 82.971 61.1781 83.3811 58.7325L85.543 45.832L96.9002 29.0607L100.466 7.77685C100.582 7.08922 101.197 6.63164 101.837 6.75552L116.601 9.58695C117.262 9.71336 117.692 10.4061 117.546 11.1089L107.842 57.2058C106.767 62.3226 103.995 66.8504 100.043 69.9548L78.4406 86.9207C77.467 87.6842 76.0892 87.4997 75.3471 86.4783C73.206 83.5356 73.4305 79.3567 75.867 76.6947L85.2232 66.4737L85.7692 63.6169" stroke="#A95858" stroke-width="3" stroke-miterlimit="10" stroke-linecap="round" stroke-linejoin="round"/>
<path d="M42.9806 49.6257C45.2711 48.1234 47.5616 48.1234 49.8523 49.6257" stroke="#A95858" stroke-width="3" stroke-miterlimit="10" stroke-linecap="round" stroke-linejoin="round"/>
<path d="M69.7223 49.6257C72.0128 48.1234 74.3033 48.1234 76.594 49.6257" stroke="#A95858" stroke-width="3" stroke-miterlimit="10" stroke-linecap="round" stroke-linejoin="round"/>
<path d="M53.4424 69.1543C57.4909 71.0283 62.0835 71.0283 66.132 69.1543" stroke="#A95858" stroke-width="3" stroke-miterlimit="10" stroke-linecap="round" stroke-linejoin="round"/>
<path d="M24.7895 32.1826C26.4414 23.9967 30.537 16.7841 36.223 11.4651" stroke="#A95858" stroke-width="3" stroke-miterlimit="10" stroke-linecap="round" stroke-linejoin="round"/>
</svg>
