<svg width="106" height="128" viewBox="0 0 106 128" fill="none" xmlns="http://www.w3.org/2000/svg">
<path d="M41.1546 81.7903C42.1579 83.1501 46.2658 83.3888 47.3338 81.7903M35.1813 94.9C42.1767 98.0112 46.1929 97.966 53.5131 94.9" stroke="#A95858" stroke-width="2"/>
<path d="M9.2286 60.9466C12.9433 55.8377 15.1217 53.4801 21.999 49.5345C33.9733 44.9425 36.1941 44.4893 42.4935 41.8951C48.9959 37.5931 52.0436 35.4764 53.6161 30.6716C53.8391 33.8945 54.2684 35.6959 56.8087 38.877C60.7643 41.9646 63.2463 43.669 69.5791 46.5165C76.9441 50.4989 79.3701 53.5353 79.4659 60.9466M9.2286 60.9466C6.55594 58.0136 5.99051 55.024 5.41807 49.063C6.03745 40.371 6.77895 36.1828 9.2286 30.6716C13.048 24.5466 15.4725 21.3563 21.999 17.5619C23.9316 16.5275 25.6661 15.6731 27.2514 14.9657M9.2286 60.9466C6.90786 58.8217 5.704 57.9854 4.07924 58.4001C2.21895 59.1315 1.90986 60.4157 2.01949 63.4931C2.62001 66.4457 2.07132 67.5569 6.44794 72.8302C8.13355 74.2022 9.08111 74.708 10.7734 75.3767C10.767 80.0305 10.9312 82.4582 12.0093 85.94C15.6535 93.4504 18.0339 97.0255 23.3378 101.408C26.6172 103.943 29.0345 105.7 31.2679 107.107M79.4659 60.9466C82.3577 52.7145 83.0344 47.6656 82.2465 37.7452C77.7784 28.2108 76.2525 22.532 63.9148 15.6756C63.0619 15.3449 62.2402 15.029 61.4431 14.7294M79.4659 60.9466C81.0675 59.1601 81.9771 58.1818 84.6152 58.4944C86.4964 59.4402 86.7088 60.9372 86.366 64.4362C84.7778 69.9422 82.9551 72.3395 78.024 75.3767C78.457 79.665 78.1282 82.0798 76.2733 86.4115M27.2514 14.9657C34.5594 11.7047 38.6954 11.5693 44.4502 11.3372C50.6468 11.0872 55.3193 12.4279 61.4431 14.7294M27.2514 14.9657C26.5961 11.622 26.9664 9.76602 30.444 6.5271C35.4348 3.28043 38.5839 2.54388 44.4502 2C51.4371 2.28053 53.9814 3.79067 57.5296 6.5271C60.4692 8.90253 61.4881 10.6035 61.4431 14.7294M70.094 95.9373C66.0112 100.609 62.764 103.581 57.5296 106.953M57.5296 106.953C55.8182 108.055 53.8943 109.2 51.6593 110.462C48.2007 111.516 46.472 111.685 43.5233 111.688C40.6072 111.451 39.2364 111.012 37.5501 110.462C35.2534 109.416 33.3398 108.412 31.2679 107.107M57.5296 106.953C58.4392 111.697 58.9969 114.482 60.5162 117.064C61.3412 119.003 63.073 120.002 65.6656 121.591C70.9808 123.252 77.3031 121.968 84.7182 125.081M31.2679 107.107C30.2379 113.34 28.7367 116.169 24.8826 120.365C22.5973 122.171 15.1055 123.408 3.46131 125.552" stroke="#A95858" stroke-width="3"/>
<path d="M22.6169 66.511C26.4615 68.6857 28.5553 68.8353 32.1947 67.4541" stroke="#A95858" stroke-width="2"/>
<path d="M56.6027 66.9822C60.4473 69.1569 62.5411 69.3065 66.1805 67.9253" stroke="#A95858" stroke-width="2"/>
<path d="M36.2112 59.1546C34.7511 58.743 27.6771 57.6569 26.0155 57.7399C23.7562 58.0696 22.2825 58.588 19.1154 60.3807" stroke="#A95858" stroke-width="2"/>
<path d="M52.0712 59.1592C53.5314 58.7476 60.6054 57.6616 62.267 57.7445C64.5263 58.0743 65.9999 58.5926 69.1671 60.3853" stroke="#A95858" stroke-width="2"/>
<path d="M96.0752 115.133C95.3848 115.809 94.6846 116.531 93.913 117.365L93.7585 118.244V119.123L94.2219 119.709L94.9941 120.295L96.0752 120.442L97.0018 120.295L99.9362 117.365L104.261 113.117L104.724 112.531L104.878 111.652L104.724 110.92L104.261 110.334L103.643 109.748L102.716 109.601L101.944 109.748L101.481 110.334C100.682 111.008 99.9728 111.609 99.3185 112.174M96.0752 115.133L91.9052 111.359M96.0752 115.133C97.1096 114.119 98.1217 113.208 99.3185 112.174M91.9052 111.359L95.303 108.283M91.9052 111.359L91.133 112.174L90.3608 113.117L89.2797 114.142L88.0442 115.133H86.6542L85.1098 114.435L84.8009 113.703V112.971L84.9553 111.652L85.4186 110.92L86.0577 110.334M95.303 108.283L99.3185 112.174M95.303 108.283L99.0096 104.767L99.3185 103.888V103.009L99.0096 102.423L98.3918 101.983L97.6196 101.544H96.5385H95.7663L94.6852 102.423M94.6852 102.423L88.8164 97.1068M94.6852 102.423L91.6496 105.206L88.614 107.99M86.0577 110.334L88.614 107.99M86.0577 110.334L80.4397 105.06M88.614 107.99L82.9476 102.716M82.9476 102.716L80.4397 105.06M82.9476 102.716L85.882 99.9113L88.8164 97.1068M88.8164 97.1068L86.9631 95.428M80.4397 105.06L78.411 103.155M78.411 103.155L69.0477 94.3656L68.43 93.3401V92.3146L69.0477 91.4357L70.3582 90.2637M78.411 103.155L86.9631 95.428M86.9631 95.428L84.0112 92.7541L81.2618 90.2637L78.411 87.6814L77.5421 86.8943L76.6154 86.3083L75.2254 86.1618L74.4532 86.6013L72.8152 88.0663M72.8152 88.0663L69.9744 85.5758C68.3929 84.8766 67.5173 84.6566 67.2289 84.9898M72.8152 88.0663L70.3582 90.2637M70.3582 90.2637L67.8122 87.3338C67.1905 86.056 66.9661 85.2934 67.2289 84.9898M67.2289 84.9898L59.3179 77.3721" stroke="#A95858" stroke-width="2"/>
</svg>
