<svg width="153" height="166" viewBox="0 0 153 166" fill="none" xmlns="http://www.w3.org/2000/svg">
<path d="M68.7771 10.1434C63.5971 9.49877 62.104 10.7745 60.5032 14.2804C60.5771 19.5745 61.7748 22.3831 68.7771 24.1057C72.9658 23.7874 74.7083 23.0205 73.9484 17.9003M68.7771 10.1434L73.9484 17.9003M68.7771 10.1434C76.933 1.86189 86.817 0.460034 93.599 3.42083C115.527 16.2339 138.753 74.1838 140.657 99.6057C140.662 105.299 139.685 109.465 138.134 112.534M73.9484 17.9003C84.4837 11.1129 89.6445 11.0287 96.7018 21.5201C115.499 46.9484 125.551 72.2809 130.832 94.4344C132.392 108.567 129.153 112.031 116.352 110.465C75.3523 100.638 65.9947 91.3965 40.3354 77.3694C29.7919 69.1845 29.9816 64.3966 36.7155 55.6502M28.4415 48.9276C22.0682 60.9174 19.1451 74.1611 28.4415 82.5406C46.5668 99.8153 114.799 122.853 121.007 121.842C123.791 121.388 128.034 121.113 131.866 119.042M28.4415 48.9276C27.6767 43.2428 28.9165 41.4018 33.6128 40.1366C39.9971 39.1311 42.9277 40.4387 46.0237 48.9276C46.267 54.8098 44.2616 56.0679 36.7155 55.6502M28.4415 48.9276L36.7155 55.6502M131.866 119.042C135.841 123.229 138.258 125.389 140.657 131.15C139.475 146.378 134.366 149.165 123.075 151.318C106.879 148.786 102.116 143.46 91.0136 136.321C76.6363 124.482 70.7865 122.492 60.5033 119.256C38.9497 116.893 33.2 122.761 24.3047 134.77L31.0273 143.044C43.1441 126.479 51.8335 123.137 73.4314 136.321C88.2788 146.999 97.3366 152.335 114.801 160.626C121.522 161.964 125.364 162.43 132.901 160.626C138.037 157.992 140.908 156.488 145.311 151.318C149.054 145.675 150.656 142.442 151 136.321C150.796 131.429 150.084 128.235 147.897 121.842C145.09 116.571 142.842 114.709 138.134 112.534M131.866 119.042C134.272 117.743 136.515 115.736 138.134 112.534" stroke="#A95858" stroke-width="3"/>
<path d="M31.5959 149.249C31.5959 157.23 24.9039 163.78 16.5479 163.78C8.19194 163.78 1.5 157.23 1.5 149.249C1.5 141.269 8.19194 134.719 16.5479 134.719C24.9039 134.719 31.5959 141.269 31.5959 149.249Z" stroke="#A95858" stroke-width="3"/>
</svg>
