<svg width="234" height="336" viewBox="0 0 234 336" fill="none" xmlns="http://www.w3.org/2000/svg">
<path d="M4.76366 144.267C51.5649 69.7102 70.6904 94.5537 123.264 20.7671C175.837 -53.0196 227.061 83.1602 233.764 219.767C227.796 267.289 224.32 293.761 196.764 313.267C139.989 335.104 108.469 352.914 47.7637 304.267C15.3092 278.776 -11.1639 239.44 4.76366 144.267Z" fill="#D9B1AD" fill-opacity="0.24"/>
<path d="M229 144.267C182.199 69.7102 163.073 94.5537 110.5 20.7671C57.9267 -53.0196 6.70245 83.1602 0 219.767C5.96773 267.289 9.44386 293.761 37 313.267C93.7744 335.104 125.295 352.914 186 304.267C218.454 278.776 244.928 239.44 229 144.267Z" fill="#D9B1AD" fill-opacity="0.24"/>
<path d="M110.177 244.96C111.528 239.542 110.727 236.065 109.769 233.918C111.752 230.938 114.295 227.211 117.618 222.427C121.58 217.27 126.438 212.639 129.733 193.007C130.713 183.112 130.882 179.415 131.006 173.684C142.253 167.42 147.672 163.089 152.361 150.751C158.419 126.878 147.487 96.6759 144.511 96.7024C142.409 97.3144 140.519 102.021 136.405 118.572C135.958 120.371 135.484 122.31 134.981 124.4C132.186 146.085 130.198 159.458 134.437 160.853C137.48 162.251 143.826 152.221 142.72 142.707C141.174 133.303 139.713 127.087 136.405 118.572C140.519 102.021 142.409 97.3144 144.511 96.7024C147.487 96.6759 158.419 126.878 152.361 150.751C147.672 163.089 142.253 167.42 131.006 173.684C129.407 162.214 128.983 156.38 121.553 137.55C112.156 119.344 94.2184 105.356 93.1812 107.294C93.4358 134.908 94.3858 149.216 105.279 161.34C112.488 169.625 118.626 171.71 131.006 173.684C130.882 179.415 130.713 183.112 129.733 193.007C126.438 212.639 121.58 217.27 117.618 222.427C114.295 227.211 111.752 230.938 109.769 233.918C104.38 242.022 103.132 244.609 101.593 247.938C100.554 250.836 102.146 253.504 104 254.82C105.858 255.722 107.788 252.854 110.177 244.96Z" fill="#F2DFDF"/>
<path d="M77.9835 275.331C84.6779 268.495 91.3109 264.963 91.8463 247.318C91.5676 242.878 85.6599 209.682 87.4863 201.402C89.3127 193.123 104.026 181.988 103.412 189.502C98.7372 197.719 99.8083 213.366 100.218 213.363C102.068 220.415 107.548 230.16 108.443 231.585C109.339 233.01 112.221 236.765 110.177 244.96C107.788 252.854 105.858 255.722 104 254.82C102.146 253.504 100.554 250.836 101.593 247.938C103.699 243.384 105.258 240.219 117.618 222.427C121.58 217.27 126.438 212.639 129.733 193.007C130.713 183.112 130.882 179.415 131.006 173.684M131.006 173.684C118.626 171.71 112.488 169.625 105.279 161.34C94.3858 149.216 93.4358 134.908 93.1812 107.294C94.2184 105.356 112.156 119.344 121.553 137.55C128.983 156.38 129.407 162.214 131.006 173.684ZM131.006 173.684C142.253 167.42 147.672 163.089 152.361 150.751C158.419 126.878 147.487 96.6759 144.511 96.7024C142.181 97.381 140.111 103.093 134.981 124.4C132.186 146.085 130.198 159.458 134.437 160.853C137.48 162.251 143.826 152.221 142.72 142.707C140.831 131.218 139.069 124.487 133.912 112.51C129.487 104.64 126.915 101.53 122.183 98.1239C120.617 97.9314 117.192 106.957 114.162 117.529" stroke="#A95858" stroke-width="4" stroke-linecap="round"/>
</svg>
