<svg width="560" height="1279" viewBox="0 0 560 1279" fill="none" xmlns="http://www.w3.org/2000/svg">
<path d="M16.3408 1263.72C63.1399 1215.93 109.509 1191.24 113.251 1067.89C111.303 1036.85 70.0041 804.787 82.772 746.909C95.5399 689.031 198.397 611.191 194.106 663.721C161.424 721.159 168.911 830.542 171.775 830.522C184.709 879.817 223.015 947.943 229.277 957.904C235.54 967.864 255.686 994.117 241.394 1051.41C224.695 1106.59 211.206 1126.64 198.216 1120.34C185.257 1111.13 174.125 1092.48 181.385 1072.22C196.107 1040.39 207.006 1018.27 293.415 893.884C321.114 857.836 355.071 825.46 378.109 688.217C384.954 619.048 386.139 593.201 387.007 553.139M387.007 553.139C300.464 539.341 257.547 524.764 207.156 466.846C131.004 382.086 124.364 282.07 122.584 89.0248C129.834 75.4777 255.229 173.261 320.92 300.536C372.863 432.168 375.829 472.955 387.007 553.139ZM387.007 553.139C465.626 509.352 503.515 479.069 536.288 392.822C578.64 225.93 502.219 14.7979 481.418 14.9825C465.123 19.7267 450.656 59.6552 414.794 208.607C395.254 360.202 381.356 453.687 410.992 463.441C432.263 473.216 476.625 403.096 468.897 336.589C455.688 256.271 443.371 209.22 407.324 125.491C376.384 70.4747 358.404 48.7283 325.329 24.9204C314.383 23.5745 290.434 86.672 269.257 160.573" stroke="black" stroke-width="15" stroke-linecap="round"/>
</svg>
