<svg width="48" height="48" viewBox="0 0 48 48" fill="none" xmlns="http://www.w3.org/2000/svg">
<path d="M42.001 8.64706V39.3529C42.001 40.055 41.7221 40.7283 41.2257 41.2247C40.7293 41.7211 40.056 42 39.3539 42H8.64804C7.94599 42 7.2727 41.7211 6.77628 41.2247C6.27986 40.7283 6.00098 40.055 6.00098 39.3529V8.64706C6.00098 7.94502 6.27986 7.27173 6.77628 6.77531C7.2727 6.27889 7.94599 6 8.64804 6H39.3539C40.056 6 40.7293 6.27889 41.2257 6.77531C41.7221 7.27173 42.001 7.94502 42.001 8.64706V8.64706ZM16.5892 19.7647H11.2951V36.7059H16.5892V19.7647ZM17.0657 13.9412C17.0685 13.5407 16.9924 13.1436 16.8417 12.7726C16.691 12.4016 16.4687 12.0638 16.1875 11.7787C15.9063 11.4936 15.5717 11.2666 15.2028 11.1108C14.8339 10.955 14.4379 10.8734 14.0374 10.8706H13.9422C13.1278 10.8706 12.3468 11.1941 11.7709 11.7699C11.1951 12.3458 10.8716 13.1268 10.8716 13.9412C10.8716 14.7555 11.1951 15.5366 11.7709 16.1124C12.3468 16.6883 13.1278 17.0118 13.9422 17.0118V17.0118C14.3426 17.0216 14.7411 16.9525 15.1149 16.8083C15.4886 16.664 15.8303 16.4476 16.1204 16.1713C16.4104 15.895 16.6432 15.5642 16.8054 15.1979C16.9676 14.8316 17.0561 14.437 17.0657 14.0365V13.9412ZM36.7069 26.4141C36.7069 21.3212 33.4669 19.3412 30.248 19.3412C29.1941 19.2884 28.1448 19.5129 27.2047 19.9922C26.2646 20.4715 25.4667 21.189 24.8904 22.0729H24.7422V19.7647H19.7657V36.7059H25.0598V27.6953C24.9833 26.7725 25.274 25.8567 25.8687 25.1469C26.4635 24.4372 27.3143 23.9908 28.2363 23.9047H28.4374C30.121 23.9047 31.3704 24.9635 31.3704 27.6318V36.7059H36.6645L36.7069 26.4141Z" fill="#F2F2F2"/>
</svg>
