<svg width="123" height="96" viewBox="0 0 123 96" fill="none" xmlns="http://www.w3.org/2000/svg">
<path d="M2 24.446C12.8963 18.7803 18.0526 15.4631 25.3226 9.2611M2 24.446C5.20428 34.1243 17.0985 44.2826 25.3226 50.5115C34.3164 56.2122 40.9806 57.4478 54.2956 57.9247C65.1552 57.5059 69.4185 56.0182 76.1756 52.7833M2 24.446C12.1245 27.8949 18.4242 28.9614 30.4921 29.707C33.4495 29.6784 35.9771 29.4832 38.3064 29.1076M32.656 5.67411C37.1901 3.69252 39.4049 2.3191 46.1207 2.08711C49.2189 2.88233 51.0002 4.07343 54.2956 8.185C57.7641 5.00472 59.7054 3.21967 63.9132 2.08711C67.5087 1.54121 75.2753 3.47486 85.4325 10.3372C94.0733 17.408 98.6351 20.4088 106.351 24.3265M106.351 24.3265C96.7952 27.4171 91.2899 28.9344 80.1429 29.707C76.6543 29.6669 73.6959 29.5136 70.8821 29.1076M106.351 24.3265C103.189 33.1803 99.0277 38.0998 87.8369 46.805M121.378 83.1532L101.782 59.9573L90.4818 69.4525M106.711 94.6316L100.617 87.2185M100.617 87.2185L105.99 83.1532M100.617 87.2185L94.2267 79.4466M94.2267 79.4466L87.8369 71.6748L90.4818 69.4525M94.2267 79.4466L99.0174 75.2618M90.4818 69.4525C88.4579 67.3482 87.4305 66.1181 86.1538 63.6639C85.7726 62.4444 85.6573 61.6554 86.1538 59.9573L82.6675 56.1312L85.0117 54.2779M98.296 62.3486L94.2267 57.3268C93.4581 56.465 92.6867 56.1756 90.4818 56.1312L87.356 52.4246L85.0117 54.2779M85.0117 54.2779L76.1756 43.8158M38.3064 29.1076C43.7359 28.2321 48.0881 26.377 54.2956 23.3699C60.9593 26.7382 65.6729 28.3559 70.8821 29.1076M38.3064 29.1076C44.3428 33.5057 47.8932 34.1365 54.2956 34.4896C62.5559 33.9246 65.6 32.2398 70.8821 29.1076" stroke="#A95858" stroke-width="4" stroke-linejoin="round"/>
</svg>
