<svg width="155" height="139" viewBox="0 0 155 139" fill="none" xmlns="http://www.w3.org/2000/svg">
<path d="M127.495 120.359C125.495 122.48 123.466 124.743 121.23 127.357L120.783 130.112V132.867L122.125 134.704L124.363 136.541L127.495 137L130.18 136.541L138.681 127.357L151.21 114.041L152.553 112.204L153 109.449L152.553 107.153L151.21 105.316L149.42 103.48L146.736 103.02L144.498 103.48L143.156 105.316C140.843 107.43 138.787 109.315 136.891 111.086M127.495 120.359L115.413 108.531M127.495 120.359C130.492 117.182 133.424 114.325 136.891 111.086M115.413 108.531L125.258 98.8878M115.413 108.531L113.176 111.086L110.939 114.041L107.807 117.255L104.227 120.359H100.2L95.7253 118.173L94.8304 115.878V113.582L95.2779 109.449L96.6202 107.153L98.4718 105.316M125.258 98.8878L136.891 111.086M125.258 98.8878L135.997 87.8674L136.891 85.1123V82.3572L135.997 80.5204L134.207 79.1429L131.969 77.7653H128.837H126.6L123.468 80.5204M123.468 80.5204L106.464 63.8574M123.468 80.5204L114.673 89.2449M98.4718 105.316L105.878 97.9694M98.4718 105.316L82.1951 88.7857M105.878 97.9694L89.4609 81.4388M105.878 97.9694L114.673 89.2449M89.4609 81.4388L82.1951 88.7857M89.4609 81.4388L97.9626 72.6481M106.464 63.8574L101.095 58.5954M106.464 63.8574L97.9626 72.6481M82.1951 88.7857L76.3174 82.8163M76.3174 82.8163L49.1896 55.2653L47.3998 52.051V48.8367L49.1896 46.0816L52.9863 42.4082M76.3174 82.8163L101.095 58.5954M101.095 58.5954L92.5425 50.2143M92.5425 50.2143L82.1951 60.3163M92.5425 50.2143L84.5768 42.4082M84.5768 42.4082L76.3174 50.2143M84.5768 42.4082L76.3174 34.3141M76.3174 34.3141L73.7999 31.8469L71.1151 30.0102L67.088 29.551L64.8507 30.9286L60.1049 35.5204M76.3174 34.3141L66.1931 44.2449M60.1049 35.5204L51.8744 27.7143C47.2924 25.5226 44.7556 24.8329 43.9199 25.8776M60.1049 35.5204L52.9863 42.4082M52.9863 42.4082L45.61 33.2245C43.8088 29.2195 43.1587 26.8291 43.9199 25.8776M43.9199 25.8776L21 2M114.673 89.2449L110.939 85.5714M97.9626 72.6481L103.78 78.2245" stroke="#A95858" stroke-width="3"/>
<path d="M10.9956 31.488C12.1467 27.9804 13.2273 26.4208 15.543 24C19.3232 27.3026 20.7603 29.9732 21 32.736C20.6151 36.2525 19.5811 37.7938 15.543 37.728C12.3318 37.4831 10.9026 36.0912 10.9956 31.488Z" stroke="#A95858" stroke-width="3"/>
<path d="M3.41665 51.144C5.19516 47.5935 6.26518 45.6814 9.17678 43.344C11.5096 44.9823 12.9942 46.535 16.1496 51.144C19.1794 58.7188 17.3063 62.9595 9.17678 63C1.51468 62.037 0.700253 58.8897 3.41665 51.144Z" stroke="#A95858" stroke-width="3"/>
</svg>
