<svg width="101" height="113" viewBox="0 0 101 113" fill="none" xmlns="http://www.w3.org/2000/svg">
<path d="M23.791 111H44.9077C41.7616 106.589 40.433 104.053 40.6997 99.1522C40.622 95.9113 39.9471 94.0063 44.9077 91.4671C49.651 89.6086 53.4322 89.2697 64.6472 91.4671C77.1393 89.8922 81.8388 87.1765 81.1732 75.1363L64.6472 57.0764C48.2109 36.2401 40.1745 24.2185 28.5346 2H9.78976C-1.91231 44.7076 0.175531 64.0292 12.0085 94.1569M31.8245 82.8854C40.7061 76.9899 46.8323 76.7516 59.062 79.8114M70.5384 106.325C73.9323 105.868 75.7136 105.331 78.5719 103.635M91.1195 96.9747C95.9834 92.6131 97.7872 89.7204 99 83.5899M90.5839 57.0764C95.0879 62.5561 96.1057 65.6484 97.7758 71.1657M72.5277 33.7009C77.7169 38.6164 79.9563 41.3624 83.4685 46.2532M57.5318 18.7791L63.576 24.0946" stroke="#A95858" stroke-width="4"/>
</svg>
