<svg width="85" height="190" viewBox="0 0 85 190" fill="none" xmlns="http://www.w3.org/2000/svg">
<path d="M3.59364 186.459C10.4341 179.474 17.2116 175.865 17.7587 157.835C17.474 153.299 11.4374 119.378 13.3037 110.919C15.1699 102.459 30.2042 91.0813 29.577 98.7592C24.7999 107.155 25.8943 123.143 26.3129 123.14C28.2034 130.346 33.8024 140.303 34.7178 141.759C35.6332 143.215 38.5779 147.052 36.489 155.426C34.048 163.492 32.0764 166.423 30.1776 165.501C28.2835 164.156 26.6564 161.43 27.7175 158.469C29.8694 153.816 31.4626 150.582 44.0927 132.401C48.1413 127.132 53.1046 122.4 56.4719 102.34C57.4727 92.2299 57.6455 88.4516 57.7726 82.5961M57.7726 82.5961C45.1229 80.5792 38.8501 78.4485 31.4844 69.9829C20.3536 57.594 19.383 42.9748 19.1228 14.7581C20.1826 12.778 38.5111 27.0707 48.1129 45.6738C55.7053 64.9141 56.1386 70.8758 57.7726 82.5961ZM57.7726 82.5961C69.2642 76.1958 74.8022 71.7694 79.5926 59.1631C85.783 34.7691 74.6127 3.90863 71.5723 3.93562C69.1906 4.62906 67.076 10.4653 61.8341 32.2371C58.9782 54.3952 56.9467 68.0594 61.2785 69.4853C64.3875 70.914 70.8718 60.6646 69.7422 50.9436C67.8114 39.204 66.0111 32.3265 60.7421 20.0883C56.2199 12.0467 53.5917 8.86812 48.7573 5.38822C47.1572 5.19149 43.6568 14.4142 40.5615 25.2161" stroke="#595859" stroke-width="6" stroke-linecap="round"/>
</svg>
