<svg width="36" height="36" viewBox="0 0 36 36" fill="none" xmlns="http://www.w3.org/2000/svg">
<path d="M18.0765 0.580566C8.1962 0.580566 0.155428 8.32521 0.151944 17.8431C0.149622 20.8869 0.97646 23.8575 2.5442 26.4739L0.000976562 35.4193L9.50381 33.0189C12.1472 34.4016 15.0863 35.1229 18.0695 35.1208H18.0765C27.9567 35.1208 35.9975 27.375 36.001 17.8571C36.0033 13.2468 34.1406 8.90702 30.7554 5.64495C27.3714 2.38173 22.8714 0.581728 18.0765 0.580566ZM18.0765 32.2048H18.0707C15.3974 32.2048 12.7752 31.5127 10.4874 30.2051L9.94162 29.8939L4.30472 31.3176L5.80975 26.0221L5.45556 25.4798C3.96783 23.2108 3.17587 20.5564 3.17711 17.8431C3.18059 9.93128 9.86498 3.49657 18.0823 3.49657C22.0608 3.49773 25.8014 4.99231 28.6152 7.70392C31.429 10.4155 32.977 14.0213 32.9747 17.8559C32.9712 25.7678 26.2879 32.2048 18.0753 32.2048H18.0765ZM26.2485 21.4571C25.8002 21.2422 23.5984 20.1982 23.1873 20.0531C22.7774 19.9102 22.4789 19.8359 22.1805 20.2679C21.8832 20.6999 21.0238 21.6719 20.7637 21.9588C20.5012 22.2468 20.2399 22.2816 19.7917 22.0668C19.3434 21.8508 17.8999 21.3955 16.1905 19.9253C14.8585 18.7826 13.9597 17.3705 13.6984 16.9373C13.4371 16.5065 13.6705 16.2731 13.8947 16.0582C14.0956 15.8666 14.3429 15.5554 14.5659 15.3034C14.7888 15.0514 14.8632 14.8714 15.0141 14.5834C15.1628 14.2966 15.0885 14.0434 14.9758 13.8286C14.8632 13.6114 13.969 11.4886 13.5939 10.6257C13.2316 9.78495 12.8623 9.8976 12.587 9.88366C12.3258 9.87205 12.0285 9.86857 11.7277 9.86857C11.4316 9.86857 10.945 9.97657 10.5339 10.4086C10.1239 10.8406 8.96614 11.8834 8.96614 14.0062C8.96614 16.1302 10.571 18.1811 10.7952 18.4691C11.0193 18.7559 13.9539 23.1142 18.4469 24.9839C19.5153 25.4264 20.3491 25.6923 21.0006 25.8921C22.0736 26.2207 23.0503 26.1731 23.8214 26.0628C24.6807 25.9385 26.4714 25.0199 26.843 24.0131C27.217 23.0062 27.217 22.1422 27.1055 21.9622C26.9963 21.7822 26.6967 21.6742 26.2485 21.4571V21.4571Z" fill="#F2F2F2"/>
</svg>
