<svg width="259" height="318" viewBox="0 0 259 318" fill="none" xmlns="http://www.w3.org/2000/svg">
<path d="M229.05 126.46C182.249 51.9033 175.05 -15.0399 110.55 2.9601C46.0504 20.9601 -1.77168 130.958 0.0503599 201.96C6.01809 249.482 9.49422 275.954 37.0504 295.46C93.8247 317.297 125.345 335.107 186.05 286.46C238.981 220.716 263.979 184.277 229.05 126.46Z" fill="#FF7D9D" fill-opacity="0.12"/>
<path d="M29.1708 126.46C75.9721 51.9033 83.1708 -15.0399 147.671 2.9601C212.171 20.9601 259.993 130.958 258.171 201.96C252.203 249.482 248.727 275.954 221.171 295.46C164.396 317.297 132.876 335.107 72.1708 286.46C19.2405 220.716 -5.75815 184.277 29.1708 126.46Z" fill="#FF7D9D" fill-opacity="0.12"/>
<path d="M121.757 136.072C107.414 119.81 98.2411 107.395 90.529 110.441C87.8808 111.837 86.3512 112.485 87.2664 124.583C89.5302 134.327 92.0588 140.375 92.3933 155.074C95.2652 175.48 92.6882 188.701 134.341 193.963C127.36 193.605 123.49 193.531 116.164 193.963C97.6212 198.029 91.2358 202.699 90.529 217.384C92.8368 235.775 101.242 239.437 121.757 240.805" stroke="#CA1C63" stroke-width="4" stroke-linecap="round"/>
<path d="M135.273 193.963C126.446 189.538 121.78 186.644 119.426 172.751C119.845 153.46 120.924 144.293 123.621 129.444C124.438 113.532 125.525 106.476 131.544 106.022C145.587 105.108 157.336 132.519 159.509 142.259C161.876 156.261 165.012 163.605 172.094 176.286C171.376 185.188 169.59 189.107 166.501 196.172M135.273 193.963L166.501 196.172M135.273 193.963C104.23 208.22 108.063 220.14 110.57 229.758C126.487 255.242 147.691 233.137 165.102 213.407L166.501 196.172" stroke="#CA1C63" stroke-width="4"/>
<path d="M173.026 174.519C173.825 173.049 174.553 172.409 175.823 171.425C177.908 171.626 178.385 172.157 179.085 173.193C179.79 174.915 179.767 175.779 179.085 177.17C177.539 179.519 176.304 180.052 173.958 180.705C172.784 183.457 172.252 185.085 171.628 188.218C169.822 195.529 169.923 200.838 168.365 207.662C166.807 214.486 166.409 217.338 165.569 222.687V213.407L166.501 196.172C168.903 191.02 169.975 187.998 171.628 182.473V179.38C172.026 177.117 172.32 176.064 173.026 174.519Z" fill="#796E6C" fill-opacity="0.8"/>
<path d="M187.009 148.004C182.545 151.444 180.133 153.473 177.221 158.61C174.73 163.059 175.274 166.108 175.823 171.425M175.823 171.425C174.553 172.409 173.825 173.049 173.026 174.519C172.32 176.064 172.026 177.117 171.628 179.38M175.823 171.425C177.908 171.626 178.385 172.157 179.085 173.193C179.79 174.915 179.767 175.779 179.085 177.17C177.539 179.519 176.304 180.052 173.958 180.705M175.823 171.425C178.725 168.112 180.452 166.292 184.678 163.471C187.58 161.271 189.644 160.428 194 159.494M171.628 179.38C172.084 180.699 172.622 180.942 173.958 180.705M171.628 179.38V182.473C169.975 187.998 168.903 191.02 166.501 196.172L165.569 213.407V222.687C166.409 217.338 166.807 214.486 168.365 207.662C169.923 200.838 169.822 195.529 171.628 188.218C172.252 185.085 172.784 183.457 173.958 180.705" stroke="#CA1C63"/>
</svg>
