<svg width="76" height="84" viewBox="0 0 76 84" fill="none" xmlns="http://www.w3.org/2000/svg">
<path d="M17.1016 37.6016H38V58.5H17.1016V37.6016ZM67.1016 75.1016V29.3984H8.89844V75.1016H67.1016ZM67.1016 8.5C69.3151 8.5 71.2682 9.34635 72.9609 11.0391C74.6536 12.7318 75.5 14.6849 75.5 16.8984V75.1016C75.5 77.3151 74.6536 79.2682 72.9609 80.9609C71.2682 82.6536 69.3151 83.5 67.1016 83.5H8.89844C6.55469 83.5 4.53646 82.7188 2.84375 81.1562C1.28125 79.4635 0.5 77.4453 0.5 75.1016V16.8984C0.5 14.6849 1.28125 12.7318 2.84375 11.0391C4.53646 9.34635 6.55469 8.5 8.89844 8.5H13V0.101562H21.3984V8.5H54.6016V0.101562H63V8.5H67.1016Z" fill="#CA1C63"/>
</svg>
