<svg width="76" height="84" viewBox="0 0 76 84" fill="none" xmlns="http://www.w3.org/2000/svg">
<path d="M63 58.9922C66.3854 58.9922 69.25 60.2292 71.5938 62.7031C73.9375 65.0469 75.1094 67.8464 75.1094 71.1016C75.1094 74.487 73.8724 77.4167 71.3984 79.8906C69.0547 82.2344 66.2552 83.4062 63 83.4062C59.7448 83.4062 56.8802 82.2344 54.4062 79.8906C52.0625 77.4167 50.8906 74.487 50.8906 71.1016C50.8906 69.7995 50.9557 68.888 51.0859 68.3672L21.5938 51.1797C19.1198 53.3932 16.2552 54.5 13 54.5C9.61458 54.5 6.6849 53.263 4.21094 50.7891C1.73698 48.3151 0.5 45.3854 0.5 42C0.5 38.6146 1.73698 35.6849 4.21094 33.2109C6.6849 30.737 9.61458 29.5 13 29.5C16.2552 29.5 19.1198 30.6068 21.5938 32.8203L50.8906 15.8281C50.6302 14.526 50.5 13.5495 50.5 12.8984C50.5 9.51302 51.737 6.58333 54.2109 4.10938C56.6849 1.63542 59.6146 0.398438 63 0.398438C66.3854 0.398438 69.3151 1.63542 71.7891 4.10938C74.263 6.58333 75.5 9.51302 75.5 12.8984C75.5 16.2839 74.263 19.2135 71.7891 21.6875C69.3151 24.1615 66.3854 25.3984 63 25.3984C59.875 25.3984 57.0104 24.2266 54.4062 21.8828L25.1094 39.0703C25.3698 40.3724 25.5 41.349 25.5 42C25.5 42.651 25.3698 43.6276 25.1094 44.9297L54.7969 62.1172C57.1406 60.0339 59.875 58.9922 63 58.9922Z" fill="#CA1C63"/>
</svg>
