<svg width="261" height="318" viewBox="0 0 261 318" fill="none" xmlns="http://www.w3.org/2000/svg">
<path d="M31.1709 126.46C77.9721 51.9033 85.1709 -15.0399 149.671 2.9601C214.171 20.9601 261.993 130.958 260.171 201.96C254.203 249.482 250.727 275.954 223.171 295.46C166.396 317.297 134.876 335.107 74.1709 286.46C21.2406 220.716 -3.75809 184.277 31.1709 126.46Z" fill="#FF7D9D" fill-opacity="0.12"/>
<path d="M229.05 126.46C182.249 51.9033 175.05 -15.0399 110.55 2.9601C46.0504 20.9601 -1.77168 130.958 0.0503599 201.96C6.01809 249.482 9.49422 275.954 37.0504 295.46C93.8247 317.297 125.345 335.107 186.05 286.46C238.981 220.716 263.979 184.277 229.05 126.46Z" fill="#FF7D9D" fill-opacity="0.12"/>
<path d="M187.156 140.3C165.007 131.455 162.468 140.935 152.284 149.578C143.413 137.889 137.438 133.475 119.331 140.3C100.422 153.083 102.162 164.959 112.613 183.81C126.105 200.155 135.264 208.804 153.883 223.481C179.814 203.62 188.883 193.083 199.953 174.852C204.545 151.544 197.813 148.001 187.156 140.3Z" stroke="#CA1C63" stroke-width="4"/>
<path d="M149.404 115.026L150.872 113.667L150.665 113.443L150.4 113.292L149.404 115.026ZM113.893 113.107L112.925 111.357L112.644 111.512L112.427 111.746L113.893 113.107ZM109.414 121.745L107.748 122.852L110.154 126.47L111.338 122.29L109.414 121.745ZM101.416 113.107L102.311 111.318L102.266 111.296L102.22 111.276L101.416 113.107ZM63.9843 121.745L62.248 120.752L62.1406 120.94L62.0759 121.146L63.9843 121.745ZM72.9422 163.015L71.3548 164.232L71.4698 164.382L71.611 164.508L72.9422 163.015ZM108.454 194.688L107.123 196.18L108.288 197.219L109.579 196.342L108.454 194.688ZM117.577 190.903C118.49 190.282 118.727 189.038 118.106 188.124C117.485 187.211 116.241 186.974 115.327 187.595L117.577 190.903ZM155.784 149.241C158.515 140.909 159.753 134.566 159.011 128.977C158.257 123.291 155.495 118.661 150.872 113.667L147.937 116.385C152.252 121.045 154.44 124.941 155.046 129.503C155.664 134.161 154.673 139.787 151.983 147.996L155.784 149.241ZM150.4 113.292C144.11 109.681 138.751 106.857 132.919 106.165C126.984 105.46 120.837 106.979 112.925 111.357L114.861 114.857C122.348 110.715 127.636 109.566 132.447 110.137C137.36 110.72 142.057 113.115 148.409 116.761L150.4 113.292ZM112.427 111.746C111.031 113.251 110.062 114.607 109.299 116.144C108.552 117.651 108.038 119.264 107.489 121.199L111.338 122.29C111.876 120.39 112.309 119.077 112.883 117.921C113.442 116.795 114.169 115.75 115.359 114.467L112.427 111.746ZM111.079 120.637C107.91 115.871 105.879 113.106 102.311 111.318L100.52 114.895C103.012 116.143 104.525 118.004 107.748 122.852L111.079 120.637ZM102.22 111.276C94.1363 107.722 86.4897 105.946 79.6178 107.201C72.6254 108.478 66.7794 112.825 62.248 120.752L65.7206 122.737C69.7898 115.619 74.7286 112.16 80.3363 111.136C86.0645 110.09 92.8333 111.518 100.611 114.938L102.22 111.276ZM62.0759 121.146C59.8942 128.105 58.2974 134.008 59.3143 140.681C60.3296 147.343 63.8984 154.502 71.3548 164.232L74.5296 161.798C67.2265 152.269 64.1337 145.755 63.2686 140.078C62.4051 134.411 63.7091 129.308 65.8927 122.343L62.0759 121.146ZM71.611 164.508L107.123 196.18L109.785 193.195L74.2734 161.522L71.611 164.508ZM109.579 196.342L117.577 190.903L115.327 187.595L107.329 193.034L109.579 196.342Z" fill="#CA1C63"/>
</svg>
