<svg width="92" height="88" viewBox="0 0 92 88" fill="none" xmlns="http://www.w3.org/2000/svg">
<path d="M78.8125 68.9531C79.724 67.5208 80.4401 65.9583 80.9609 64.2656C81.4818 62.5729 81.7422 60.8151 81.7422 58.9922C81.7422 55.4766 80.8958 52.3516 79.2031 49.6172C77.5104 46.7526 75.2318 44.474 72.3672 42.7812C69.6328 41.0885 66.5078 40.2422 62.9922 40.2422C59.4766 40.2422 56.2865 41.0885 53.4219 42.7812C50.6875 44.474 48.474 46.7526 46.7812 49.6172C45.0885 52.3516 44.2422 55.4766 44.2422 58.9922C44.2422 62.5078 45.0885 65.6979 46.7812 68.5625C48.474 71.2969 50.6875 73.5104 53.4219 75.2031C56.2865 76.8958 59.4766 77.7422 62.9922 77.7422C64.8151 77.7422 66.5729 77.4818 68.2656 76.9609C69.9583 76.4401 71.5208 75.724 72.9531 74.8125L85.8438 87.8984L91.8984 81.8438L78.8125 68.9531ZM62.9922 69.3438C60.1276 69.3438 57.6536 68.3672 55.5703 66.4141C53.6172 64.3307 52.6406 61.8568 52.6406 58.9922C52.6406 56.1276 53.6172 53.7188 55.5703 51.7656C57.6536 49.6823 60.1276 48.6406 62.9922 48.6406C65.8568 48.6406 68.2656 49.6823 70.2188 51.7656C72.3021 53.7188 73.3438 56.1276 73.3438 58.9922C73.3438 61.8568 72.3021 64.3307 70.2188 66.4141C68.2656 68.3672 65.8568 69.3438 62.9922 69.3438ZM61.4297 33.9922C58.4349 34.1224 55.5703 34.7734 52.8359 35.9453L50.4922 32.4297L34.6719 58.2109L22.1719 43.5625L6.9375 67.7812L0.101562 62.8984L21 29.5L33.5 44.1484L50.1016 17C50.1016 17 50.4922 17.5859 51.2734 18.7578C52.0547 19.9297 52.9661 21.362 54.0078 23.0547C55.1797 24.7474 56.3516 26.4401 57.5234 28.1328C58.6953 29.6953 59.6068 31.0625 60.2578 32.2344C61.0391 33.4062 61.4297 33.9922 61.4297 33.9922ZM72.3672 36.1406C69.6328 34.9688 66.7682 34.2526 63.7734 33.9922C63.7734 33.9922 64.2943 33.2109 65.3359 31.6484C66.3776 29.9557 67.6797 27.8724 69.2422 25.3984C70.9349 22.7943 72.6276 20.0599 74.3203 17.1953C76.1432 14.3307 77.8359 11.6615 79.3984 9.1875C81.0911 6.58333 82.4583 4.5 83.5 2.9375C84.5417 1.24479 85.0625 0.398438 85.0625 0.398438L91.8984 5.28125L72.3672 36.1406Z" fill="#CA1C63"/>
</svg>
