<svg width="182" height="120" viewBox="0 0 182 120" fill="none" xmlns="http://www.w3.org/2000/svg">
<circle cx="60" cy="60" r="60" fill="#FAA2AC" fill-opacity="0.36"/>
<path d="M104.791 114H125.908C122.762 109.589 121.433 107.053 121.7 102.152C121.622 98.9113 120.947 97.0063 125.908 94.4671C130.651 92.6086 134.432 92.2697 145.647 94.4671C158.139 92.8922 162.839 90.1765 162.173 78.1363L145.647 60.0764C129.211 39.2401 121.175 27.2185 109.535 5H90.7898C79.0877 47.7076 81.1755 67.0292 93.0085 97.1569M112.825 85.8854C121.706 79.9899 127.832 79.7516 140.062 82.8114M151.538 109.325C154.932 108.868 156.714 108.331 159.572 106.635M172.12 99.9747C176.983 95.6131 178.787 92.7204 180 86.5899M171.584 60.0764C176.088 65.5561 177.106 68.6484 178.776 74.1657M153.528 36.7009C158.717 41.6164 160.956 44.3624 164.469 49.2532M138.532 21.7791L144.576 27.0946" stroke="#CA1C63" stroke-width="4"/>
</svg>
