<svg width="199" height="124" viewBox="0 0 199 124" fill="none" xmlns="http://www.w3.org/2000/svg">
<circle cx="60" cy="60" r="60" fill="#D9D9D9" fill-opacity="0.4"/>
<path d="M78 52.446C88.8963 46.7803 94.0526 43.4631 101.323 37.2611M78 52.446C81.2043 62.1243 93.0985 72.2826 101.323 78.5115C110.316 84.2122 116.981 85.4478 130.296 85.9247C141.155 85.5059 145.419 84.0182 152.176 80.7833M78 52.446C88.1245 55.8949 94.4242 56.9614 106.492 57.707C109.45 57.6784 111.977 57.4832 114.306 57.1076M108.656 33.6741C113.19 31.6925 115.405 30.3191 122.121 30.0871C125.219 30.8823 127 32.0734 130.296 36.185C133.764 33.0047 135.705 31.2197 139.913 30.0871C143.509 29.5412 151.275 31.4749 161.433 38.3372C170.073 45.408 174.635 48.4088 182.351 52.3265M182.351 52.3265C172.795 55.4171 167.29 56.9344 156.143 57.707C152.654 57.6669 149.696 57.5136 146.882 57.1076M182.351 52.3265C179.189 61.1803 175.028 66.0998 163.837 74.805M197.378 111.153L177.782 87.9573L166.482 97.4525M182.711 122.632L176.617 115.218M176.617 115.218L181.99 111.153M176.617 115.218L170.227 107.447M170.227 107.447L163.837 99.6748L166.482 97.4525M170.227 107.447L175.017 103.262M166.482 97.4525C164.458 95.3482 163.43 94.1181 162.154 91.6639C161.773 90.4444 161.657 89.6554 162.154 87.9573L158.667 84.1312L161.012 82.2779M174.296 90.3486L170.227 85.3268C169.458 84.465 168.687 84.1756 166.482 84.1312L163.356 80.4246L161.012 82.2779M161.012 82.2779L152.176 71.8158M114.306 57.1076C119.736 56.2321 124.088 54.377 130.296 51.3699C136.959 54.7382 141.673 56.3559 146.882 57.1076M114.306 57.1076C120.343 61.5057 123.893 62.1365 130.296 62.4896C138.556 61.9246 141.6 60.2398 146.882 57.1076" stroke="#FAA2AC" stroke-width="4" stroke-linejoin="round"/>
</svg>
