<svg width="181" height="122" viewBox="0 0 181 122" fill="none" xmlns="http://www.w3.org/2000/svg">
<circle cx="60" cy="62" r="60" fill="#FAA2AC" fill-opacity="0.36"/>
<mask id="mask0_284_46" style="mask-type:luminance" maskUnits="userSpaceOnUse" x="60" y="0" width="121" height="121">
<path d="M60 0H181V120.011H60V0Z" fill="white"/>
</mask>
<g mask="url(#mask0_284_46)">
<path d="M155.959 98.348C162.332 101.545 167.31 106.301 167.31 114.306V115.972C167.31 117.231 166.279 118.253 165.01 118.253H75.99C74.7209 118.253 73.6905 117.231 73.6905 115.972V114.306C73.6905 98.8332 92.2753 95.5048 103.636 92.092C104.865 91.724 105.706 90.6012 105.706 89.3261V78.8627" stroke="#CA1C63" stroke-width="3" stroke-miterlimit="10" stroke-linecap="round" stroke-linejoin="round"/>
<path d="M135.294 78.8629V89.3263C135.294 90.6014 136.136 91.7242 137.364 92.0922C140.593 93.0626 144.405 94.026 148.205 95.2612" stroke="#CA1C63" stroke-width="3" stroke-miterlimit="10" stroke-linecap="round" stroke-linejoin="round"/>
<path d="M120.5 1.75814C137.672 1.75814 152.019 13.7451 155.498 29.7427" stroke="#CA1C63" stroke-width="3" stroke-miterlimit="10" stroke-linecap="round" stroke-linejoin="round"/>
<path d="M93.4404 36.1063C93.0765 37.1869 92.7882 38.3002 92.5873 39.4441" stroke="#CA1C63" stroke-width="3" stroke-miterlimit="10" stroke-linecap="round" stroke-linejoin="round"/>
<path d="M106.405 75.7544C111.453 78.6797 116.799 80.3533 120.5 80.3533C124.203 80.3533 129.547 78.6797 134.595 75.7568" stroke="#CA1C63" stroke-width="3" stroke-miterlimit="10" stroke-linecap="round" stroke-linejoin="round"/>
<path d="M112.602 20.2846C113.684 20.1322 114.79 20.0549 115.913 20.0549H125.087C136.759 20.0549 146.456 28.4251 148.413 39.4441" stroke="#CA1C63" stroke-width="3" stroke-miterlimit="10" stroke-linecap="round" stroke-linejoin="round"/>
<path d="M93.4335 36.1226C97.703 25.9599 125.32 12.9633 140.799 8.01543C135.03 4.07031 128.038 1.75823 120.5 1.75823C114.478 1.75823 108.804 3.23258 103.823 5.83719" stroke="#CA1C63" stroke-width="3" stroke-miterlimit="10" stroke-linecap="round" stroke-linejoin="round"/>
<path d="M94.5181 58.8875C96.222 58.114 97.2524 56.2717 96.905 54.359L94.745 42.3978L83.3871 26.848L79.8209 7.11416C79.7051 6.47661 79.0906 6.05235 78.4502 6.1672L63.6868 8.79244C63.025 8.90964 62.5949 9.55188 62.7414 10.2035L72.4451 52.9433C73.5204 57.6874 76.2925 61.8855 80.2439 64.7639L101.847 80.4942C102.82 81.202 104.198 81.0309 104.94 80.084C107.081 77.3556 106.857 73.481 104.42 71.0129L95.064 61.5362L94.5181 58.8875ZM94.5181 58.8875C94.2038 59.0305 93.8659 59.1384 93.509 59.2016C91.2213 59.6071 89.0377 58.0976 88.6265 55.831L86.4641 43.8698" stroke="#CA1C63" stroke-width="3" stroke-miterlimit="10" stroke-linecap="round" stroke-linejoin="round"/>
<path d="M154.535 43.87L152.373 55.8308C151.963 58.0986 149.778 59.6071 147.491 59.2007C145.205 58.794 143.684 56.6263 144.094 54.3588L146.256 42.3978L157.613 26.848L161.179 7.11416C161.295 6.47661 161.909 6.05235 162.55 6.16721L177.313 8.79244C177.975 8.90964 178.405 9.55189 178.259 10.2035L168.555 52.9433C167.48 57.6874 164.708 61.8855 160.756 64.7639L139.153 80.4942C138.18 81.202 136.802 81.0309 136.06 80.084C133.919 77.3556 134.143 73.481 136.58 71.0129L145.936 61.5362L146.482 58.8876" stroke="#CA1C63" stroke-width="3" stroke-miterlimit="10" stroke-linecap="round" stroke-linejoin="round"/>
<path d="M103.693 45.915C105.984 44.5211 108.274 44.5211 110.565 45.915" stroke="#CA1C63" stroke-width="3" stroke-miterlimit="10" stroke-linecap="round" stroke-linejoin="round"/>
<path d="M130.435 45.915C132.726 44.5211 135.016 44.5211 137.307 45.915" stroke="#CA1C63" stroke-width="3" stroke-miterlimit="10" stroke-linecap="round" stroke-linejoin="round"/>
<path d="M114.155 64.0213C118.204 65.7589 122.796 65.7589 126.845 64.0213" stroke="#CA1C63" stroke-width="3" stroke-miterlimit="10" stroke-linecap="round" stroke-linejoin="round"/>
<path d="M85.5023 29.7427C87.1542 22.1529 91.2498 15.4656 96.9358 10.5339" stroke="#CA1C63" stroke-width="3" stroke-miterlimit="10" stroke-linecap="round" stroke-linejoin="round"/>
</g>
</svg>
