<svg width="182" height="128" viewBox="0 0 182 128" fill="none" xmlns="http://www.w3.org/2000/svg">
<circle cx="60" cy="62" r="60" fill="#D9D9D9" fill-opacity="0.4"/>
<path d="M117.155 81.7903C118.158 83.1501 122.266 83.3888 123.334 81.7903M111.181 94.9C118.177 98.0112 122.193 97.966 129.513 94.9" stroke="#FAA2AC" stroke-width="2"/>
<path d="M97.999 49.5345C91.1217 53.4801 88.9433 55.8377 85.2286 60.9466C82.5559 58.0136 81.9905 55.024 81.4181 49.063C82.0375 40.371 82.779 36.1828 85.2286 30.6716C89.048 24.5466 91.4725 21.3563 97.999 17.5619C99.9316 16.5275 101.666 15.6731 103.251 14.9657C102.596 11.622 102.966 9.76602 106.444 6.5271C111.435 3.28043 114.584 2.54388 120.45 2C127.437 2.28053 129.981 3.79067 133.53 6.5271C136.469 8.90253 137.488 10.6035 137.443 14.7294C138.24 15.029 139.062 15.3449 139.915 15.6756C152.252 22.532 153.778 28.2108 158.247 37.7452C159.034 47.6656 158.358 52.7145 155.466 60.9466C155.37 53.5353 152.944 50.4989 145.579 46.5165C139.246 43.669 136.764 41.9646 132.809 38.877C130.268 35.6959 129.839 33.8945 129.616 30.6716C128.044 35.4764 124.996 37.5931 118.493 41.8951C112.194 44.4893 109.973 44.9425 97.999 49.5345Z" fill="white"/>
<path d="M85.2286 60.9466C88.9433 55.8377 91.1217 53.4801 97.999 49.5345C109.973 44.9425 112.194 44.4893 118.493 41.8951C124.996 37.5931 128.044 35.4764 129.616 30.6716C129.839 33.8945 130.268 35.6959 132.809 38.877C136.764 41.9646 139.246 43.669 145.579 46.5165C152.944 50.4989 155.37 53.5353 155.466 60.9466M85.2286 60.9466C82.5559 58.0136 81.9905 55.024 81.4181 49.063C82.0375 40.371 82.779 36.1828 85.2286 30.6716C89.048 24.5466 91.4725 21.3563 97.999 17.5619C99.9316 16.5275 101.666 15.6731 103.251 14.9657M85.2286 60.9466C82.9079 58.8217 81.704 57.9854 80.0792 58.4001C78.2189 59.1315 77.9099 60.4157 78.0195 63.4931C78.62 66.4457 78.0713 67.5569 82.4479 72.8302C84.1336 74.2022 85.0811 74.708 86.7734 75.3767C86.767 80.0305 86.9312 82.4582 88.0093 85.94C91.6535 93.4504 94.0339 97.0255 99.3378 101.408C102.617 103.943 105.035 105.7 107.268 107.107M155.466 60.9466C158.358 52.7145 159.034 47.6656 158.247 37.7452C153.778 28.2108 152.252 22.532 139.915 15.6756C139.062 15.3449 138.24 15.029 137.443 14.7294M155.466 60.9466C157.068 59.1601 157.977 58.1818 160.615 58.4944C162.496 59.4402 162.709 60.9372 162.366 64.4362C160.778 69.9422 158.955 72.3395 154.024 75.3767C154.457 79.665 154.128 82.0798 152.273 86.4115M103.251 14.9657C110.559 11.7047 114.695 11.5693 120.45 11.3372C126.647 11.0872 131.319 12.4279 137.443 14.7294M103.251 14.9657C102.596 11.622 102.966 9.76602 106.444 6.5271C111.435 3.28043 114.584 2.54388 120.45 2C127.437 2.28053 129.981 3.79067 133.53 6.5271C136.469 8.90253 137.488 10.6035 137.443 14.7294M146.094 95.9373C142.011 100.609 138.764 103.581 133.53 106.953M133.53 106.953C131.818 108.055 129.894 109.2 127.659 110.462C124.201 111.516 122.472 111.685 119.523 111.688C116.607 111.451 115.236 111.012 113.55 110.462C111.253 109.416 109.34 108.412 107.268 107.107M133.53 106.953C134.439 111.697 134.997 114.482 136.516 117.064C137.341 119.003 139.073 120.002 141.666 121.591C146.981 123.252 153.303 121.968 160.718 125.081M107.268 107.107C106.238 113.34 104.737 116.169 100.883 120.365C98.5973 122.171 91.1055 123.408 79.4613 125.552" stroke="#FAA2AC" stroke-width="3"/>
<path d="M98.6169 66.511C102.461 68.6857 104.555 68.8353 108.195 67.4541" stroke="#FAA2AC" stroke-width="2"/>
<path d="M132.603 66.9822C136.447 69.1569 138.541 69.3065 142.181 67.9253" stroke="#FAA2AC" stroke-width="2"/>
<path d="M112.211 59.1546C110.751 58.743 103.677 57.6569 102.015 57.7399C99.7562 58.0696 98.2825 58.588 95.1154 60.3807" stroke="#FAA2AC" stroke-width="2"/>
<path d="M128.071 59.1592C129.531 58.7476 136.605 57.6616 138.267 57.7445C140.526 58.0743 142 58.5926 145.167 60.3853" stroke="#FAA2AC" stroke-width="2"/>
<path d="M169.759 118.244L169.913 117.365C170.685 116.531 171.385 115.809 172.075 115.133L167.905 111.359L167.133 112.174L166.361 113.117L165.28 114.142L164.044 115.133H162.654L161.11 114.435L160.801 113.703V112.971L160.955 111.652L161.419 110.92L162.058 110.334L156.44 105.06L154.411 103.155L145.048 94.3656L144.43 93.3401V92.3146L145.048 91.4357L146.358 90.2637L143.812 87.3338C143.19 86.056 142.966 85.2934 143.229 84.9898C143.517 84.6566 144.393 84.8766 145.974 85.5758L148.815 88.0663L150.453 86.6013L151.225 86.1618L152.615 86.3083L153.542 86.8943L154.411 87.6814L157.262 90.2637L160.011 92.7541L162.963 95.428L164.816 97.1068L170.685 102.423L171.766 101.544H172.539H173.62L174.392 101.983L175.01 102.423L175.318 103.009V103.888L175.01 104.767L171.303 108.283L175.318 112.174C175.973 111.609 176.682 111.008 177.481 110.334L177.944 109.748L178.716 109.601L179.643 109.748L180.261 110.334L180.724 110.92L180.878 111.652L180.724 112.531L180.261 113.117L175.936 117.365L173.002 120.295L172.075 120.442L170.994 120.295L170.222 119.709L169.759 119.123V118.244Z" fill="white"/>
<path d="M172.075 115.133C171.385 115.809 170.685 116.531 169.913 117.365L169.759 118.244V119.123L170.222 119.709L170.994 120.295L172.075 120.442L173.002 120.295L175.936 117.365L180.261 113.117L180.724 112.531L180.878 111.652L180.724 110.92L180.261 110.334L179.643 109.748L178.716 109.601L177.944 109.748L177.481 110.334C176.682 111.008 175.973 111.609 175.318 112.174M172.075 115.133L167.905 111.359M172.075 115.133C173.11 114.119 174.122 113.208 175.318 112.174M167.905 111.359L171.303 108.283M167.905 111.359L167.133 112.174L166.361 113.117L165.28 114.142L164.044 115.133H162.654L161.11 114.435L160.801 113.703V112.971L160.955 111.652L161.419 110.92L162.058 110.334M171.303 108.283L175.318 112.174M171.303 108.283L175.01 104.767L175.318 103.888V103.009L175.01 102.423L174.392 101.983L173.62 101.544H172.539H171.766L170.685 102.423M170.685 102.423L164.816 97.1068M170.685 102.423L167.65 105.206L164.614 107.99M162.058 110.334L164.614 107.99M162.058 110.334L156.44 105.06M164.614 107.99L158.948 102.716M158.948 102.716L156.44 105.06M158.948 102.716L161.882 99.9113L164.816 97.1068M164.816 97.1068L162.963 95.428M156.44 105.06L154.411 103.155M154.411 103.155L145.048 94.3656L144.43 93.3401V92.3146L145.048 91.4357L146.358 90.2637M154.411 103.155L162.963 95.428M162.963 95.428L160.011 92.7541L157.262 90.2637L154.411 87.6814L153.542 86.8943L152.615 86.3083L151.225 86.1618L150.453 86.6013L148.815 88.0663M148.815 88.0663L145.974 85.5758C144.393 84.8766 143.517 84.6566 143.229 84.9898M148.815 88.0663L146.358 90.2637M146.358 90.2637L143.812 87.3338C143.19 86.056 142.966 85.2934 143.229 84.9898M143.229 84.9898L135.318 77.3721" stroke="#FAA2AC" stroke-width="2"/>
</svg>
