<svg width="48" height="48" viewBox="0 0 48 48" fill="none" xmlns="http://www.w3.org/2000/svg">
<path fill-rule="evenodd" clip-rule="evenodd" d="M24.001 6C19.1122 6 18.5002 6.0204 16.5802 6.108C14.6638 6.1956 13.3546 6.5004 12.2098 6.9456C11.0098 7.3968 9.92138 8.1048 9.02138 9.0216C8.10604 9.92056 7.39761 11.0082 6.94538 12.2088C6.50258 13.3536 6.19658 14.664 6.10898 16.5804C6.02258 18.4992 6.00098 19.11 6.00098 24C6.00098 28.89 6.02138 29.5008 6.10898 31.4208C6.19658 33.3372 6.50138 34.6464 6.94658 35.7912C7.39778 36.9912 8.10578 38.0796 9.02258 38.9796C9.92156 39.8949 11.0092 40.6033 12.2098 41.0556C13.3546 41.4996 14.6638 41.8044 16.5802 41.892C18.5002 41.9796 19.1122 42 24.001 42C28.8898 42 29.5018 41.9796 31.4218 41.892C33.3382 41.8044 34.6474 41.4996 35.7922 41.0544C36.9922 40.6032 38.0806 39.8952 38.9806 38.9784C39.8959 38.0794 40.6043 36.9918 41.0566 35.7912C41.5006 34.6464 41.8054 33.3372 41.893 31.4208C41.9806 29.5008 42.001 28.8888 42.001 24C42.001 19.1112 41.9806 18.4992 41.893 16.5792C41.8054 14.6628 41.5006 13.3536 41.0554 12.2088C40.6035 11.0077 39.895 9.91959 38.9794 9.0204C38.0804 8.10507 36.9928 7.39663 35.7922 6.9444C34.6474 6.5016 33.337 6.1956 31.4206 6.108C29.5018 6.0216 28.891 6 24.001 6ZM24.001 9.2436C28.807 9.2436 29.377 9.2616 31.2754 9.348C33.0298 9.4284 33.9826 9.72 34.6174 9.9684C35.4574 10.2936 36.0574 10.6848 36.6874 11.3136C37.3174 11.9436 37.7074 12.5436 38.0326 13.3836C38.2798 14.0184 38.5726 14.9712 38.653 16.7256C38.7394 18.624 38.7574 19.194 38.7574 24C38.7574 28.806 38.7394 29.376 38.653 31.2744C38.5726 33.0288 38.281 33.9816 38.0326 34.6164C37.7445 35.3983 37.2848 36.1056 36.6874 36.6864C36.1067 37.284 35.3993 37.7437 34.6174 38.0316C33.9826 38.2788 33.0298 38.5716 31.2754 38.652C29.377 38.7384 28.8082 38.7564 24.001 38.7564C19.1938 38.7564 18.625 38.7384 16.7266 38.652C14.9722 38.5716 14.0194 38.28 13.3846 38.0316C12.6027 37.7435 11.8954 37.2839 11.3146 36.6864C10.7172 36.1055 10.2575 35.3982 9.96938 34.6164C9.72218 33.9816 9.42938 33.0288 9.34898 31.2744C9.26258 29.376 9.24458 28.806 9.24458 24C9.24458 19.194 9.26258 18.624 9.34898 16.7256C9.42938 14.9712 9.72098 14.0184 9.96938 13.3836C10.2946 12.5436 10.6858 11.9436 11.3146 11.3136C11.8953 10.7161 12.6027 10.2564 13.3846 9.9684C14.0194 9.7212 14.9722 9.4284 16.7266 9.348C18.625 9.2616 19.195 9.2436 24.001 9.2436V9.2436Z" fill="#796E6C"/>
<path fill-rule="evenodd" clip-rule="evenodd" d="M24.001 30.0061C23.2123 30.0061 22.4313 29.8507 21.7026 29.5489C20.9739 29.2471 20.3118 28.8047 19.7541 28.247C19.1964 27.6892 18.754 27.0271 18.4522 26.2985C18.1503 25.5698 17.995 24.7888 17.995 24.0001C17.995 23.2113 18.1503 22.4304 18.4522 21.7017C18.754 20.973 19.1964 20.3109 19.7541 19.7532C20.3118 19.1955 20.9739 18.7531 21.7026 18.4512C22.4313 18.1494 23.2123 17.9941 24.001 17.9941C25.5939 17.9941 27.1215 18.6268 28.2479 19.7532C29.3742 20.8795 30.007 22.4072 30.007 24.0001C30.007 25.593 29.3742 27.1206 28.2479 28.247C27.1215 29.3733 25.5939 30.0061 24.001 30.0061V30.0061ZM24.001 14.7481C21.5472 14.7481 19.1939 15.7228 17.4588 17.4579C15.7237 19.193 14.749 21.5463 14.749 24.0001C14.749 26.4538 15.7237 28.8071 17.4588 30.5422C19.1939 32.2773 21.5472 33.2521 24.001 33.2521C26.4548 33.2521 28.808 32.2773 30.5431 30.5422C32.2782 28.8071 33.253 26.4538 33.253 24.0001C33.253 21.5463 32.2782 19.193 30.5431 17.4579C28.808 15.7228 26.4548 14.7481 24.001 14.7481V14.7481ZM35.9446 14.5801C35.9446 15.1601 35.7142 15.7164 35.304 16.1265C34.8939 16.5367 34.3376 16.7671 33.7576 16.7671C33.1775 16.7671 32.6213 16.5367 32.2111 16.1265C31.801 15.7164 31.5706 15.1601 31.5706 14.5801C31.5706 14 31.801 13.4438 32.2111 13.0336C32.6213 12.6235 33.1775 12.3931 33.7576 12.3931C34.3376 12.3931 34.8939 12.6235 35.304 13.0336C35.7142 13.4438 35.9446 14 35.9446 14.5801" fill="#796E6C"/>
</svg>
