<svg width="84" height="84" viewBox="0 0 84 84" fill="none" xmlns="http://www.w3.org/2000/svg">
<path d="M62.8984 42C62.8984 43.1719 62.4427 44.1484 61.5312 44.9297C60.75 45.7109 59.7734 46.1016 58.6016 46.1016H17L0.398438 62.8984V4.5C0.398438 3.32812 0.789062 2.35156 1.57031 1.57031C2.35156 0.789062 3.32812 0.398438 4.5 0.398438H58.6016C59.7734 0.398438 60.75 0.789062 61.5312 1.57031C62.4427 2.35156 62.8984 3.32812 62.8984 4.5V42ZM79.5 17C80.6719 17 81.6484 17.3906 82.4297 18.1719C83.2109 18.9531 83.6016 19.9297 83.6016 21.1016V83.6016L67 67H21.1016C19.9297 67 18.9531 66.6094 18.1719 65.8281C17.3906 65.0469 17 64.0703 17 62.8984V54.5H71.1016V17H79.5Z" fill="#CA1C63"/>
</svg>
