<svg width="130" height="141" viewBox="0 0 130 141" fill="none" xmlns="http://www.w3.org/2000/svg">
<path d="M58.7567 7.95697C54.3314 7.40623 53.0558 8.49613 51.6882 11.4912C51.7514 16.014 52.7746 18.4134 58.7567 19.8851C62.3351 19.6131 63.8238 18.9579 63.1745 14.5837M58.7567 7.95697L63.1745 14.5837M58.7567 7.95697C65.7243 0.882013 74.1682 -0.315601 79.9622 2.21383C98.6957 13.1601 118.537 62.667 120.164 84.385C120.168 89.2488 119.334 92.808 118.008 95.4296M63.1745 14.5837C72.175 8.78523 76.5838 8.71325 82.6129 17.6762C98.6717 39.3997 107.259 61.0413 111.77 79.9672C113.103 92.0405 110.336 94.9997 99.4006 93.6624C64.3739 85.267 56.3797 77.3719 34.4588 65.3885C25.4514 58.3961 25.6135 54.3057 31.3663 46.8337M24.2978 41.0905C18.8531 51.3334 16.3558 62.6476 24.2978 69.8063C39.7824 84.5642 98.0738 104.245 103.377 103.382C105.755 102.994 109.38 102.758 112.654 100.99M24.2978 41.0905C23.6444 36.2339 24.7036 34.6611 28.7156 33.5803C34.1698 32.7213 36.6734 33.8384 39.3184 41.0905C39.5262 46.1157 37.813 47.1904 31.3663 46.8337M24.2978 41.0905L31.3663 46.8337M112.654 100.99C116.05 104.567 118.114 106.412 120.164 111.334C119.154 124.343 114.79 126.724 105.144 128.563C91.307 126.4 87.2382 121.85 77.7534 115.751C65.4708 105.637 60.4734 103.937 51.6884 101.173C33.275 99.1537 28.363 104.167 20.7637 114.426L26.5069 121.495C36.8583 107.343 44.2817 104.488 62.7329 115.751C75.4171 124.873 83.1552 129.432 98.0754 136.515C103.817 137.658 107.099 138.056 113.538 136.515C117.926 134.265 120.379 132.98 124.14 128.563C127.338 123.743 128.707 120.98 129 115.751C128.826 111.572 128.218 108.843 126.349 103.382C123.951 98.8784 122.031 97.288 118.008 95.4296M112.654 100.99C114.709 99.8795 116.626 98.165 118.008 95.4296" stroke="#CA1C63" stroke-width="2"/>
<path d="M27.274 126.796C27.274 133.777 21.4225 139.491 14.137 139.491C6.85146 139.491 1 133.777 1 126.796C1 119.814 6.85146 114.101 14.137 114.101C21.4225 114.101 27.274 119.814 27.274 126.796Z" stroke="#CA1C63" stroke-width="2"/>
</svg>
