<svg width="100" height="68" viewBox="0 0 100 68" fill="none" xmlns="http://www.w3.org/2000/svg">
<path d="M91.6016 54.8984V25.6016H75V54.8984H91.6016ZM95.8984 17.3984C97.0703 17.3984 98.0469 17.7891 98.8281 18.5703C99.6094 19.3516 100 20.3281 100 21.5V63.1016C100 64.2734 99.6094 65.3151 98.8281 66.2266C98.0469 67.0078 97.0703 67.3984 95.8984 67.3984H70.8984C69.7266 67.3984 68.6849 67.0078 67.7734 66.2266C66.9922 65.3151 66.6016 64.2734 66.6016 63.1016V21.5C66.6016 20.3281 66.9922 19.3516 67.7734 18.5703C68.6849 17.7891 69.7266 17.3984 70.8984 17.3984H95.8984ZM16.6016 9V54.8984H58.3984V67.3984H0V54.8984H8.39844V9C8.39844 6.78646 9.17969 4.83333 10.7422 3.14062C12.4349 1.44792 14.388 0.601562 16.6016 0.601562H91.6016V9H16.6016Z" fill="#CA1C63"/>
</svg>
