<svg width="154" height="138" viewBox="0 0 154 138" fill="none" xmlns="http://www.w3.org/2000/svg">
<path d="M126.495 119.359C124.495 121.48 122.466 123.743 120.23 126.357L119.783 129.112V131.867L121.125 133.704L123.363 135.541L126.495 136L129.18 135.541L137.681 126.357L150.21 113.041L151.553 111.204L152 108.449L151.553 106.153L150.21 104.316L148.42 102.48L145.736 102.02L143.498 102.48L142.156 104.316C139.843 106.43 137.787 108.315 135.891 110.086M126.495 119.359L114.413 107.531M126.495 119.359C129.492 116.182 132.424 113.325 135.891 110.086M114.413 107.531L124.258 97.8878M114.413 107.531L112.176 110.086L109.939 113.041L106.807 116.255L103.227 119.359H99.1999L94.7253 117.173L93.8304 114.878V112.582L94.2779 108.449L95.6202 106.153L97.4718 104.316M124.258 97.8878L135.891 110.086M124.258 97.8878L134.997 86.8674L135.891 84.1123V81.3572L134.997 79.5204L133.207 78.1429L130.969 76.7653H127.837H125.6L122.468 79.5204M122.468 79.5204L105.464 62.8574M122.468 79.5204L113.673 88.2449M97.4718 104.316L104.878 96.9694M97.4718 104.316L81.1951 87.7857M104.878 96.9694L88.4609 80.4388M104.878 96.9694L113.673 88.2449M88.4609 80.4388L81.1951 87.7857M88.4609 80.4388L96.9626 71.6481M105.464 62.8574L100.095 57.5954M105.464 62.8574L96.9626 71.6481M81.1951 87.7857L75.3174 81.8163M75.3174 81.8163L48.1896 54.2653L46.3998 51.051V47.8367L48.1896 45.0816L51.9863 41.4082M75.3174 81.8163L100.095 57.5954M100.095 57.5954L91.5425 49.2143M91.5425 49.2143L81.1951 59.3163M91.5425 49.2143L83.5768 41.4082M83.5768 41.4082L75.3174 49.2143M83.5768 41.4082L75.3174 33.3141M75.3174 33.3141L72.7999 30.8469L70.1151 29.0102L66.088 28.551L63.8507 29.9286L59.1049 34.5204M75.3174 33.3141L65.1931 43.2449M59.1049 34.5204L50.8744 26.7143C46.2924 24.5226 43.7556 23.8329 42.9199 24.8776M59.1049 34.5204L51.9863 41.4082M51.9863 41.4082L44.61 32.2245C42.8088 28.2195 42.1587 25.8291 42.9199 24.8776M42.9199 24.8776L20 1M113.673 88.2449L109.939 84.5714M96.9626 71.6481L102.78 77.2245" stroke="#CA1C63" stroke-width="2"/>
<path d="M9.99558 30.488C11.1467 26.9804 12.2273 25.4208 14.543 23C18.3232 26.3026 19.7603 28.9732 20 31.736C19.6151 35.2525 18.5811 36.7938 14.543 36.728C11.3318 36.4831 9.90257 35.0912 9.99558 30.488Z" stroke="#CA1C63" stroke-width="2"/>
<path d="M2.41665 50.144C4.19516 46.5935 5.26518 44.6814 8.17678 42.344C10.5096 43.9823 11.9942 45.535 15.1496 50.144C18.1794 57.7188 16.3063 61.9595 8.17678 62C0.514678 61.037 -0.299747 57.8897 2.41665 50.144Z" stroke="#CA1C63" stroke-width="2"/>
</svg>
