<svg width="30" height="66" viewBox="0 0 30 66" fill="none" xmlns="http://www.w3.org/2000/svg">
<path d="M1.79646 64.2811C4.14006 61.8877 6.46212 60.6514 6.64955 54.4742C6.552 52.92 4.48381 41.2985 5.1232 38.4001C5.76259 35.5017 10.9135 31.6036 10.6986 34.2342C9.06194 37.1106 9.43689 42.5883 9.5803 42.5873C10.228 45.0559 12.1463 48.4675 12.4599 48.9663C12.7735 49.4651 13.7824 50.7798 13.0667 53.6488C12.2304 56.4122 11.5549 57.4163 10.9044 57.1006C10.2554 56.6398 9.69797 55.7058 10.0615 54.6912C10.7988 53.0972 11.3446 51.9891 15.6718 45.7603C17.0589 43.9551 18.7594 42.3338 19.9131 35.4609C20.2559 31.9971 20.3152 30.7027 20.3587 28.6965M20.3587 28.6965C16.0248 28.0055 13.8756 27.2755 11.3521 24.3751C7.53858 20.1305 7.20603 15.1219 7.11689 5.45455C7.47999 4.77614 13.7595 9.67295 17.0492 16.0466C19.6504 22.6385 19.7989 24.681 20.3587 28.6965ZM20.3587 28.6965C24.2958 26.5037 26.1932 24.9872 27.8344 20.6681C29.9553 12.3105 26.1283 1.73741 25.0866 1.74666C24.2706 1.98424 23.5461 3.98378 21.7502 11.443C20.7717 19.0346 20.0757 23.7161 21.5598 24.2046C22.625 24.6941 24.8466 21.1826 24.4596 17.8521C23.7981 13.8299 23.1813 11.4737 21.3761 7.28071C19.8267 4.5256 18.9263 3.43658 17.27 2.24433C16.7218 2.17693 15.5225 5.33673 14.462 9.03755" stroke="#796E6C" stroke-width="2" stroke-linecap="round"/>
</svg>
