<svg width="28" height="64" viewBox="0 0 28 64" fill="none" xmlns="http://www.w3.org/2000/svg">
<path d="M0.796456 63.2811C3.14006 60.8877 5.46212 59.6514 5.64955 53.4742C5.552 51.92 3.48381 40.2985 4.1232 37.4001C4.76259 34.5017 9.91349 30.6036 9.69861 33.2342C8.06194 36.1106 8.43689 41.5883 8.5803 41.5873C9.22801 44.0559 11.1463 47.4675 11.4599 47.9663C11.7735 48.4651 12.7824 49.7798 12.0667 52.6488C11.2304 55.4122 10.5549 56.4163 9.90439 56.1006C9.25544 55.6398 8.69797 54.7058 9.06153 53.6912C9.79879 52.0972 10.3446 50.9891 14.6718 44.7603C16.0589 42.9551 17.7594 41.3338 18.9131 34.4609C19.2559 30.9971 19.3152 29.7027 19.3587 27.6965M19.3587 27.6965C15.0248 27.0055 12.8756 26.2755 10.3521 23.3751C6.53858 19.1305 6.20603 14.1219 6.11689 4.45455C6.47999 3.77614 12.7595 8.67295 16.0492 15.0466C18.6504 21.6385 18.7989 23.681 19.3587 27.6965ZM19.3587 27.6965C23.2958 25.5037 25.1932 23.9872 26.8344 19.6681C28.9553 11.3105 25.1283 0.737413 24.0866 0.746661C23.2706 0.984238 22.5461 2.98378 20.7502 10.443C19.7717 18.0346 19.0757 22.7161 20.5598 23.2046C21.625 23.6941 23.8466 20.1826 23.4596 16.8521C22.7981 12.8299 22.1813 10.4737 20.3761 6.28071C18.8267 3.5256 17.9263 2.43658 16.27 1.24433C15.7218 1.17693 14.5225 4.33673 13.462 8.03755" stroke="white" stroke-linecap="round"/>
</svg>
