<svg width="39" height="90" viewBox="0 0 39 90" fill="none" xmlns="http://www.w3.org/2000/svg">
<path d="M1.57265 88.0396C4.60669 84.9449 7.58353 83.4878 7.98071 74.7539C7.89712 72.5378 5.57419 55.7979 6.45992 51.7701C7.34565 47.7422 13.9788 42.8717 13.6384 46.5738C11.4885 50.4435 11.8226 58.2574 12.0045 58.2742C12.7622 61.8566 15.1069 66.9377 15.4918 67.6848C15.8767 68.432 17.1223 70.4243 16.1405 74.4008C15.0086 78.2122 14.126 79.5497 13.3091 79.0193C12.4979 78.2834 11.815 76.8881 12.3023 75.496C13.2785 73.3299 13.9994 71.8284 19.6481 63.5485C21.4538 61.1658 23.6523 59.0838 25.2929 49.4865C25.8171 44.6194 25.9257 42.7916 26.0327 39.9529M26.0327 39.9529C20.5541 38.4213 17.8473 37.1127 14.7217 32.6792C9.99486 26.1758 9.70241 19.0323 9.83894 5.31493C10.317 4.39934 18.1545 12.1416 22.162 21.5968C25.2908 31.2739 25.4263 34.1886 26.0327 39.9529ZM26.0327 39.9529C31.0825 37.3454 33.528 35.437 35.721 29.5226C38.6266 17.9435 34.0459 2.46596 32.7246 2.34641C31.6836 2.57933 30.7131 5.32195 28.2429 15.6687C26.8059 26.3072 25.8024 32.8558 27.672 33.7374C29.0103 34.5671 31.9184 29.8714 31.5136 25.1003C30.7785 19.3136 30.057 15.8944 27.8758 9.71987C25.982 5.61646 24.8681 3.95782 22.7983 2.05656C22.1048 1.89119 20.5023 6.21832 19.0618 11.3302" stroke="#CA1C63" stroke-width="3" stroke-linecap="round"/>
</svg>
