<svg width="48" height="48" viewBox="0 0 48 48" fill="none" xmlns="http://www.w3.org/2000/svg">
<path d="M24.0765 6.58057C14.1962 6.58057 6.15543 14.3252 6.15194 23.8431C6.14962 26.8869 6.97646 29.8575 8.5442 32.4739L6.00098 41.4193L15.5038 39.0189C18.1472 40.4016 21.0863 41.1229 24.0695 41.1208H24.0765C33.9567 41.1208 41.9975 33.375 42.001 23.8571C42.0033 19.2468 40.1406 14.907 36.7554 11.645C33.3714 8.38173 28.8714 6.58173 24.0765 6.58057ZM24.0765 38.2048H24.0707C21.3974 38.2048 18.7752 37.5127 16.4874 36.2051L15.9416 35.8939L10.3047 37.3176L11.8098 32.0221L11.4556 31.4798C9.96783 29.2108 9.17587 26.5564 9.17711 23.8431C9.18059 15.9313 15.865 9.49657 24.0823 9.49657C28.0608 9.49773 31.8014 10.9923 34.6152 13.7039C37.429 16.4155 38.977 20.0213 38.9747 23.8559C38.9712 31.7678 32.2879 38.2048 24.0753 38.2048H24.0765ZM32.2485 27.4571C31.8002 27.2422 29.5984 26.1982 29.1873 26.0531C28.7774 25.9102 28.4789 25.8359 28.1805 26.2679C27.8832 26.6999 27.0238 27.6719 26.7637 27.9588C26.5012 28.2468 26.2399 28.2816 25.7917 28.0668C25.3434 27.8508 23.8999 27.3955 22.1905 25.9253C20.8585 24.7826 19.9597 23.3705 19.6984 22.9373C19.4371 22.5065 19.6705 22.2731 19.8947 22.0582C20.0956 21.8666 20.3429 21.5554 20.5659 21.3034C20.7888 21.0514 20.8632 20.8714 21.0141 20.5834C21.1628 20.2966 21.0885 20.0434 20.9758 19.8286C20.8632 19.6114 19.969 17.4886 19.5939 16.6257C19.2316 15.785 18.8623 15.8976 18.587 15.8837C18.3258 15.8721 18.0285 15.8686 17.7277 15.8686C17.4316 15.8686 16.945 15.9766 16.5339 16.4086C16.1239 16.8406 14.9661 17.8834 14.9661 20.0062C14.9661 22.1302 16.571 24.1811 16.7952 24.4691C17.0193 24.7559 19.9539 29.1142 24.4469 30.9839C25.5153 31.4264 26.3491 31.6923 27.0006 31.8921C28.0736 32.2207 29.0503 32.1731 29.8214 32.0628C30.6807 31.9385 32.4714 31.0199 32.843 30.0131C33.217 29.0062 33.217 28.1422 33.1055 27.9622C32.9963 27.7822 32.6967 27.6742 32.2485 27.4571V27.4571Z" fill="#796E6C"/>
</svg>
